# xmcd
#
# Track frame offsets:
#	150
#	18373
#	40866
#
# Disc length: 788 seconds
#
# Revision: 0
# Processed by: cddbd v1.5.2PL0 Copyright (c) Steve Scherf et al.
# Submitted via: audiograbber 1.83.01
#
DISCID=19031203
DTITLE=Kanye West - Diamonds From Sierra Leone (EP)
DYEAR=2005
DGENRE=R&B
TTITLE0=Diamonds From Sierra Leone - Main
TTITLE1=Jesus Walks - Remix. feat Mase and Common
TTITLE2=The New Workout Plan - Remix. feat Fonzworth Bentley, Luke and Twista
EXTD=
EXTT0=
EXTT1=
EXTT2=
PLAYORDER=
